<svg xmlns="http://www.w3.org/2000/svg" viewBox="0 0 256 256">
  <rect width="256" height="256" rx="56" fill="#173126" />
  <path
    d="M111 28c44 4 61 31 58 63-3 17 4 29 1 51-3 25 10 43 2 62-9 21-33 34-41 22-11-17-7-34-14-52-8-20-25-33-18-57 7-27-10-43 4-67 2-5 5-9 8-11z"
    fill="#2c7a67"
  />
  <path
    d="M84 175c7 0 12 5 12 13s-5 13-12 13-12-5-12-13 5-13 12-13zm44-16c9 0 16 7 16 16s-7 16-16 16-16-7-16-16 7-16 16-16zm53-25c11 0 19 8 19 19s-8 19-19 19-19-8-19-19 8-19 19-19z"
    fill="#f4f0e5"
  />
</svg>
